<svg xmlns="http://www.w3.org/2000/svg" width="1200" height="800" viewBox="0 0 1200 800"><title>轨道信号</title><desc>原创虚构演示作品，不含外部素材。</desc><rect x="0" y="0" width="1200" height="800" rx="0" fill="#14182c"/><text x="60" y="68" fill="#b2bdd7" font-family="Arial, Microsoft YaHei, sans-serif" font-size="24" font-weight="400">E-04 / 轨道叠加的三个阶段</text><rect x="62" y="123" width="326" height="540" rx="10" fill="#1d2641"/><ellipse cx="225" cy="396" rx="144.0" ry="55.0" fill="none" stroke="#8ddce6" stroke-width="1.8" opacity=".7" transform="rotate(0.0 225 396)"/><circle cx="369.00" cy="396.00" r="4.5" fill="#ff9bab"/><text x="160" y="719" fill="#c7bcff" font-family="Arial, Microsoft YaHei, sans-serif" font-size="25" font-weight="400">1 条轨道</text><rect x="437" y="123" width="326" height="540" rx="10" fill="#1d2641"/><ellipse cx="600" cy="396" rx="144.0" ry="55.0" fill="none" stroke="#8ddce6" stroke-width="1.8" opacity=".7" transform="rotate(0.0 600 396)"/><circle cx="744.00" cy="396.00" r="4.5" fill="#ff9bab"/><ellipse cx="600" cy="396" rx="143.1" ry="55.8" fill="none" stroke="#c7bcff" stroke-width="1.8" opacity=".7" transform="rotate(30.0 600 396)"/><ellipse cx="600" cy="396" rx="142.2" ry="56.6" fill="none" stroke="#8ddce6" stroke-width="1.8" opacity=".7" transform="rotate(60.0 600 396)"/><ellipse cx="600" cy="396" rx="141.3" ry="57.4" fill="none" stroke="#c7bcff" stroke-width="1.8" opacity=".7" transform="rotate(90.0 600 396)"/><circle cx="555.39" cy="484.92" r="4.5" fill="#ff9bab"/><ellipse cx="600" cy="396" rx="140.4" ry="58.2" fill="none" stroke="#8ddce6" stroke-width="1.8" opacity=".7" transform="rotate(120.0 600 396)"/><ellipse cx="600" cy="396" rx="139.5" ry="59.0" fill="none" stroke="#c7bcff" stroke-width="1.8" opacity=".7" transform="rotate(150.0 600 396)"/><text x="535" y="719" fill="#c7bcff" font-family="Arial, Microsoft YaHei, sans-serif" font-size="25" font-weight="400">6 条轨道</text><rect x="812" y="123" width="326" height="540" rx="10" fill="#1d2641"/><ellipse cx="975" cy="396" rx="144.0" ry="55.0" fill="none" stroke="#8ddce6" stroke-width="1.8" opacity=".7" transform="rotate(0.0 975 396)"/><circle cx="1119.00" cy="396.00" r="4.5" fill="#ff9bab"/><ellipse cx="975" cy="396" rx="143.1" ry="55.8" fill="none" stroke="#c7bcff" stroke-width="1.8" opacity=".7" transform="rotate(7.5 975 396)"/><ellipse cx="975" cy="396" rx="142.2" ry="56.6" fill="none" stroke="#8ddce6" stroke-width="1.8" opacity=".7" transform="rotate(15.0 975 396)"/><ellipse cx="975" cy="396" rx="141.3" ry="57.4" fill="none" stroke="#c7bcff" stroke-width="1.8" opacity=".7" transform="rotate(22.5 975 396)"/><circle cx="1040.08" cy="471.24" r="4.5" fill="#ff9bab"/><ellipse cx="975" cy="396" rx="140.4" ry="58.2" fill="none" stroke="#8ddce6" stroke-width="1.8" opacity=".7" transform="rotate(30.0 975 396)"/><ellipse cx="975" cy="396" rx="139.5" ry="59.0" fill="none" stroke="#c7bcff" stroke-width="1.8" opacity=".7" transform="rotate(37.5 975 396)"/><ellipse cx="975" cy="396" rx="138.6" ry="59.8" fill="none" stroke="#8ddce6" stroke-width="1.8" opacity=".7" transform="rotate(45.0 975 396)"/><circle cx="913.26" cy="416.98" r="4.5" fill="#ff9bab"/><ellipse cx="975" cy="396" rx="137.7" ry="60.6" fill="none" stroke="#c7bcff" stroke-width="1.8" opacity=".7" transform="rotate(52.5 975 396)"/><ellipse cx="975" cy="396" rx="136.8" ry="61.4" fill="none" stroke="#8ddce6" stroke-width="1.8" opacity=".7" transform="rotate(60.0 975 396)"/><ellipse cx="975" cy="396" rx="135.9" ry="62.2" fill="none" stroke="#c7bcff" stroke-width="1.8" opacity=".7" transform="rotate(67.5 975 396)"/><circle cx="902.57" cy="294.94" r="4.5" fill="#ff9bab"/><ellipse cx="975" cy="396" rx="135.0" ry="63.0" fill="none" stroke="#8ddce6" stroke-width="1.8" opacity=".7" transform="rotate(75.0 975 396)"/><ellipse cx="975" cy="396" rx="134.1" ry="63.8" fill="none" stroke="#c7bcff" stroke-width="1.8" opacity=".7" transform="rotate(82.5 975 396)"/><ellipse cx="975" cy="396" rx="133.2" ry="64.6" fill="none" stroke="#8ddce6" stroke-width="1.8" opacity=".7" transform="rotate(90.0 975 396)"/><circle cx="1001.28" cy="274.32" r="4.5" fill="#ff9bab"/><ellipse cx="975" cy="396" rx="132.3" ry="65.4" fill="none" stroke="#c7bcff" stroke-width="1.8" opacity=".7" transform="rotate(97.5 975 396)"/><ellipse cx="975" cy="396" rx="131.4" ry="66.2" fill="none" stroke="#8ddce6" stroke-width="1.8" opacity=".7" transform="rotate(105.0 975 396)"/><ellipse cx="975" cy="396" rx="130.5" ry="67.0" fill="none" stroke="#c7bcff" stroke-width="1.8" opacity=".7" transform="rotate(112.5 975 396)"/><circle cx="1047.72" cy="389.56" r="4.5" fill="#ff9bab"/><ellipse cx="975" cy="396" rx="129.6" ry="67.8" fill="none" stroke="#8ddce6" stroke-width="1.8" opacity=".7" transform="rotate(120.0 975 396)"/><ellipse cx="975" cy="396" rx="128.7" ry="68.6" fill="none" stroke="#c7bcff" stroke-width="1.8" opacity=".7" transform="rotate(127.5 975 396)"/><ellipse cx="975" cy="396" rx="127.8" ry="69.4" fill="none" stroke="#8ddce6" stroke-width="1.8" opacity=".7" transform="rotate(135.0 975 396)"/><circle cx="961.58" cy="488.82" r="4.5" fill="#ff9bab"/><ellipse cx="975" cy="396" rx="126.9" ry="70.2" fill="none" stroke="#c7bcff" stroke-width="1.8" opacity=".7" transform="rotate(142.5 975 396)"/><ellipse cx="975" cy="396" rx="126.0" ry="71.0" fill="none" stroke="#8ddce6" stroke-width="1.8" opacity=".7" transform="rotate(150.0 975 396)"/><ellipse cx="975" cy="396" rx="125.1" ry="71.8" fill="none" stroke="#c7bcff" stroke-width="1.8" opacity=".7" transform="rotate(157.5 975 396)"/><circle cx="861.02" cy="447.28" r="4.5" fill="#ff9bab"/><ellipse cx="975" cy="396" rx="124.2" ry="72.6" fill="none" stroke="#8ddce6" stroke-width="1.8" opacity=".7" transform="rotate(165.0 975 396)"/><ellipse cx="975" cy="396" rx="123.3" ry="73.4" fill="none" stroke="#c7bcff" stroke-width="1.8" opacity=".7" transform="rotate(172.5 975 396)"/><text x="910" y="719" fill="#c7bcff" font-family="Arial, Microsoft YaHei, sans-serif" font-size="25" font-weight="400">24 条轨道</text></svg>
